<?xml version="1.0" encoding="UTF-8" standalone="no"?>
<!DOCTYPE svg PUBLIC "-//W3C//DTD SVG 1.1//EN" "http://www.w3.org/Graphics/SVG/1.1/DTD/svg11.dtd">
<svg width="100%" height="100%" viewBox="0 0 1200 900" version="1.1" xmlns="http://www.w3.org/2000/svg" xmlns:xlink="http://www.w3.org/1999/xlink" xml:space="preserve" xmlns:serif="http://www.serif.com/" style="fill-rule:evenodd;clip-rule:evenodd;stroke-linecap:round;stroke-linejoin:round;stroke-miterlimit:1.5;">
    <g transform="matrix(1,0,0,1,-27,-177)">
        <g transform="matrix(2.679074,0,0,2.68972,-1054.956341,-799.975467)">
            <path d="M477.004,471.977L567.361,471.977" style="fill:none;stroke:rgb(13,29,63);stroke-width:22.35px;"/>
        </g>
        <g transform="matrix(2.702016,0,0,2.68972,-1065.899871,-658.017521)">
            <path d="M477.004,471.977L566.594,471.977" style="fill:none;stroke:rgb(13,29,63);stroke-width:22.26px;"/>
        </g>
        <g transform="matrix(1.34486,0,0,2.68972,-417.490475,-518.115565)">
            <path d="M476.229,471.977L566.229,471.977" style="fill:none;stroke:rgb(13,29,63);stroke-width:28.22px;"/>
        </g>
        <g transform="matrix(2.68972,0,0,2.68972,-1060.025123,-799.975467)">
            <path d="M627,607.046L627,418.314C627,397.154 644.154,380 665.314,380L798.686,380C808.847,380 818.593,384.037 825.778,391.222C832.963,398.407 837,408.153 837,418.314L837,627.664C837,637.825 832.963,647.57 825.778,654.756C818.593,661.941 808.847,665.978 798.686,665.978L674.539,665.978C667.641,665.978 660.871,667.84 654.943,671.368C652.389,672.889 649.505,674.605 646.586,676.342C634.516,683.527 619.482,683.53 607.409,676.351C604.489,674.615 601.606,672.901 599.051,671.382C593.127,667.859 586.362,666 579.47,666L457.781,666C436.77,666 419.678,649.078 419.469,628.067C418.927,573.562 417.932,473.621 417.385,418.695C417.283,408.468 421.275,398.625 428.471,391.357C435.667,384.089 445.47,380 455.697,380L588.686,380C609.846,380 627,397.154 627,418.314L627,607.046Z" style="fill:none;stroke:rgb(13,29,63);stroke-width:22.31px;"/>
        </g>
    </g>
    <g transform="matrix(1,0,0,1,-27,-177)">
        <g transform="matrix(2.68972,0,0,2.68972,-1054.161534,-825.887804)">
            <path d="M769.82,481.166C769.82,503.18 751.881,521.1 729.82,521.1C707.637,521.1 689.82,503.18 689.82,481.166C689.82,459.02 707.637,441.1 729.82,441.1C751.881,441.1 769.82,459.02 769.82,481.166Z" style="fill:rgb(8,87,206);fill-rule:nonzero;"/>
        </g>
        <g transform="matrix(2.68972,0,0,2.68972,-1051.672112,-859.09217)">
            <path d="M728.955,539.56C762.917,539.56 790.49,565.225 790.49,596.837L790.49,636.505C790.49,637.438 790.119,638.333 789.46,638.993C788.8,639.652 787.906,640.023 786.973,640.023L670.783,640.023C669.847,640.023 668.949,639.649 668.289,638.985C667.629,638.321 667.261,637.421 667.266,636.485C667.312,628.423 667.42,608.485 667.42,596.837C667.42,565.225 694.993,539.56 728.955,539.56Z" style="fill:rgb(8,87,206);"/>
        </g>
    </g>
</svg>
