<?xml version="1.0" encoding="UTF-8" standalone="no"?>
<!DOCTYPE svg PUBLIC "-//W3C//DTD SVG 1.1//EN" "http://www.w3.org/Graphics/SVG/1.1/DTD/svg11.dtd">
<svg width="100%" height="100%" viewBox="0 0 1254 1254" version="1.1" xmlns="http://www.w3.org/2000/svg" xmlns:xlink="http://www.w3.org/1999/xlink" xml:space="preserve" xmlns:serif="http://www.serif.com/" style="fill-rule:evenodd;clip-rule:evenodd;stroke-linecap:round;stroke-linejoin:round;stroke-miterlimit:1.5;">
    <g>
        <g transform="matrix(0.996042,0,0,1,1.884502,0)">
            <path d="M477.004,471.977L567.361,471.977" style="fill:none;stroke:rgb(13,29,63);stroke-width:25.05px;"/>
        </g>
        <g transform="matrix(1.004572,0,0,1,-2.184149,52.77797)">
            <path d="M477.004,471.977L566.594,471.977" style="fill:none;stroke:rgb(13,29,63);stroke-width:24.94px;"/>
        </g>
        <g transform="matrix(0.5,0,0,1,238.885357,104.791553)">
            <path d="M476.229,471.977L566.229,471.977" style="fill:none;stroke:rgb(13,29,63);stroke-width:31.62px;"/>
        </g>
        <path d="M627,607.046L627,422.434C627,398.999 645.998,380 669.434,380L794.566,380C818.002,380 837,398.999 837,422.434L837,623.543C837,646.979 818.002,665.978 794.566,665.978C755.34,665.978 699.618,665.978 675.673,665.978C668.033,665.978 660.535,668.04 653.969,671.948C652.303,672.94 650.519,674.002 648.692,675.089C635.324,683.045 618.674,683.049 605.302,675.098C603.475,674.012 601.691,672.952 600.024,671.961C593.463,668.059 585.971,666 578.337,666C554.744,666 500.327,666 461.861,666C438.59,666 419.66,647.258 419.429,623.988C418.892,570.104 417.967,477.146 417.427,422.857C417.314,411.53 421.734,400.628 429.704,392.578C437.674,384.529 448.531,380 459.859,380L584.566,380C608.002,380 627,398.999 627,422.434L627,607.046Z" style="fill:none;stroke:rgb(13,29,63);stroke-width:25px;"/>
    </g>
    <g>
        <g transform="matrix(1,0,0,1,2.18,-9.633843)">
            <path d="M769.82,481.166C769.82,503.18 751.881,521.1 729.82,521.1C707.637,521.1 689.82,503.18 689.82,481.166C689.82,459.02 707.637,441.1 729.82,441.1C751.881,441.1 769.82,459.02 769.82,481.166Z" style="fill:rgb(8,87,206);fill-rule:nonzero;"/>
        </g>
        <g transform="matrix(1,0,0,1,3.105532,-21.97876)">
            <path d="M728.955,539.56C762.917,539.56 790.49,565.225 790.49,596.837L790.49,630.562C790.49,633.071 789.493,635.478 787.719,637.252C785.945,639.026 783.539,640.023 781.029,640.023L676.76,640.023C674.242,640.023 671.829,639.019 670.053,637.235C668.277,635.45 667.286,633.032 667.299,630.514C667.35,620.912 667.42,606.198 667.42,596.837C667.42,565.225 694.993,539.56 728.955,539.56Z" style="fill:rgb(8,87,206);"/>
        </g>
    </g>
</svg>
